Normalized EMG Linear Envelopes
nRows=203
nColumns=4

endheader
time	 med_gas_r	  soleus_r	 tib_ant_r	
2.18736	  0.066321	  0.107723	  0.031394	
2.24986	  0.071317	  0.100509	  0.031796	
2.31235	  0.075927	  0.096804	  0.031943	
2.37485	  0.079697	  0.097411	  0.031446	
2.43734	  0.081947	  0.100807	  0.030173	
2.49984	  0.082059	  0.106085	  0.028690	
2.56234	  0.080302	  0.113373	  0.027836	
2.62483	  0.077907	  0.120889	  0.027912	
2.68733	  0.076051	  0.124329	  0.028519	
2.74982	  0.075409	  0.121277	  0.029037	
2.81232	  0.076735	  0.114217	  0.029223	
2.87482	  0.080592	  0.107761	  0.029363	
2.93731	  0.086127	  0.105065	  0.029758	
2.99981	  0.091241	  0.107136	  0.030277	
3.0623	  0.093802	  0.112715	  0.030515	
3.1248	  0.092360	  0.118386	  0.030232	
3.1873	  0.087134	  0.120366	  0.029618	
3.24979	  0.080529	  0.116929	  0.029144	
3.31229	  0.075275	  0.109974	  0.029080	
3.37478	  0.072390	  0.104395	  0.029372	
3.43728	  0.071717	  0.104548	  0.029933	
3.49978	  0.073073	  0.110635	  0.030637	
3.56227	  0.075750	  0.118632	  0.031109	
3.62477	  0.077853	  0.123301	  0.030897	
3.68726	  0.077373	  0.121636	  0.029807	
3.74976	  0.074216	  0.114660	  0.028074	
3.81226	  0.071363	  0.106029	  0.026473	
3.87475	  0.073529	  0.099226	  0.026435	
3.93725	  0.083241	  0.097415	  0.030151	
3.99974	  0.098542	  0.105522	  0.040095	
4.06224	  0.116548	  0.129902	  0.057087	
4.12474	  0.137699	  0.171887	  0.078204	
4.18723	  0.162135	  0.220434	  0.097571	
4.24973	  0.183615	  0.259223	  0.110407	
4.31222	  0.195016	  0.285170	  0.116811	
4.37472	  0.199296	  0.308515	  0.120848	
4.43722	  0.205139	  0.331540	  0.125970	
4.49971	  0.214596	  0.345355	  0.133125	
4.56221	  0.225270	  0.352342	  0.143051	
4.6247	  0.236963	  0.367309	  0.157002	
4.6872	  0.249175	  0.392285	  0.173978	
4.7497	  0.261705	  0.418620	  0.190753	
4.81219	  0.275281	  0.445747	  0.205885	
4.87469	  0.284862	  0.464497	  0.219488	
4.93718	  0.281956	  0.446333	  0.230221	
4.99968	  0.264898	  0.381660	  0.237842	
5.06218	  0.241943	  0.298904	  0.245210	
5.12467	  0.227262	  0.230503	  0.254135	
5.18717	  0.230544	  0.189850	  0.265206	
5.24966	  0.249632	  0.180002	  0.283332	
5.31216	  0.275509	  0.197362	  0.315694	
5.37466	  0.295700	  0.224884	  0.361947	
5.43715	  0.295985	  0.236878	  0.411792	
5.49965	  0.273855	  0.219254	  0.451334	
5.56214	  0.245316	  0.181260	  0.468803	
5.62464	  0.227745	  0.143153	  0.460696	
5.68714	  0.224281	  0.118532	  0.436489	
5.74963	  0.228392	  0.110115	  0.411140	
5.81213	  0.232961	  0.114069	  0.391171	
5.87462	  0.234826	  0.124499	  0.373461	
5.93712	  0.234641	  0.136028	  0.356073	
5.99962	  0.233119	  0.144319	  0.342297	
6.06211	  0.232110	  0.146639	  0.336332	
6.12461	  0.233532	  0.143165	  0.343216	
6.1871	  0.234529	  0.135957	  0.367382	
6.2496	  0.234017	  0.126877	  0.405004	
6.3121	  0.236782	  0.118483	  0.445111	
6.37459	  0.244773	  0.114427	  0.479251	
6.43709	  0.255944	  0.116318	  0.504160	
6.49958	  0.268597	  0.121852	  0.516559	
6.56208	  0.280246	  0.126545	  0.509024	
6.62458	  0.287586	  0.126611	  0.476918	
6.68707	  0.287896	  0.121955	  0.431474	
6.74957	  0.280492	  0.116788	  0.395061	
6.81206	  0.267414	  0.115358	  0.379638	
6.87456	  0.251596	  0.117833	  0.378575	
6.93706	  0.237527	  0.121400	  0.380054	
6.99955	  0.231920	  0.123439	  0.380728	
7.06205	  0.239247	  0.123292	  0.384572	
7.12454	  0.256637	  0.122001	  0.394448	
7.18704	  0.273639	  0.120589	  0.407603	
7.24954	  0.281017	  0.120113	  0.416294	
7.31203	  0.281215	  0.122849	  0.413713	
7.37453	  0.283504	  0.129967	  0.398732	
7.43702	  0.289906	  0.138133	  0.371979	
7.49952	  0.295358	  0.141748	  0.336168	
7.56202	  0.297671	  0.139043	  0.302782	
7.62451	  0.296032	  0.133984	  0.284889	
7.68701	  0.288564	  0.132084	  0.283699	
7.7495	  0.279177	  0.135610	  0.290895	
7.812	  0.273033	  0.142972	  0.298975	
7.8745	  0.268615	  0.151902	  0.305883	
7.93699	  0.264730	  0.161182	  0.313837	
7.99949	  0.262180	  0.168149	  0.324157	
8.06198	  0.261235	  0.169176	  0.333165	
8.12448	  0.265622	  0.166486	  0.334881	
8.18698	  0.274275	  0.168114	  0.327662	
8.24947	  0.277809	  0.175938	  0.315934	
8.31197	  0.275820	  0.180820	  0.304966	
8.37446	  0.278109	  0.174631	  0.298365	
8.43696	  0.289967	  0.160364	  0.301469	
8.49946	  0.310708	  0.146730	  0.320027	
8.56195	  0.335233	  0.139300	  0.351098	
8.62445	  0.353684	  0.138534	  0.378808	
8.68694	  0.359253	  0.140302	  0.386171	
8.74944	  0.354305	  0.138846	  0.373324	
8.81194	  0.343053	  0.133775	  0.357966	
8.87443	  0.323498	  0.131212	  0.355842	
8.93693	  0.295040	  0.135506	  0.367460	
8.99942	  0.264926	  0.143981	  0.383016	
9.06192	  0.240931	  0.150637	  0.392570	
9.12442	  0.226688	  0.151522	  0.392835	
9.18691	  0.221376	  0.147863	  0.387056	
9.24941	  0.221416	  0.146630	  0.376799	
9.3119	  0.226040	  0.154477	  0.358843	
9.3744	  0.235758	  0.169686	  0.332004	
9.4369	  0.247245	  0.184054	  0.300739	
9.49939	  0.255799	  0.189951	  0.272821	
9.56189	  0.260425	  0.183481	  0.255052	
9.62438	  0.262588	  0.167702	  0.248324	
9.68688	  0.260327	  0.151603	  0.247522	
9.74938	  0.250863	  0.140381	  0.246298	
9.81187	  0.236278	  0.131942	  0.241844	
9.87437	  0.220262	  0.124440	  0.236083	
9.93686	  0.208017	  0.119628	  0.231037	
9.99936	  0.205196	  0.118527	  0.224626	
10.0619	  0.208905	  0.119769	  0.213503	
10.1244	  0.211621	  0.122445	  0.198510	
10.1868	  0.211309	  0.126761	  0.185536	
10.2493	  0.209178	  0.131462	  0.179838	
10.3118	  0.206952	  0.133643	  0.179685	
10.3743	  0.205494	  0.132027	  0.178220	
10.4368	  0.203239	  0.127911	  0.171837	
10.4993	  0.201679	  0.122598	  0.162695	
10.5618	  0.202823	  0.116685	  0.153295	
10.6243	  0.200589	  0.111470	  0.145080	
10.6868	  0.191018	  0.108482	  0.140602	
10.7493	  0.181611	  0.107724	  0.139357	
10.8118	  0.178080	  0.107453	  0.135286	
10.8743	  0.177902	  0.106205	  0.124353	
10.9368	  0.179350	  0.104900	  0.109121	
10.9993	  0.182803	  0.105007	  0.093359	
11.0618	  0.188048	  0.105456	  0.078315	
11.1243	  0.193744	  0.104512	  0.065354	
11.1868	  0.193920	  0.102798	  0.057304	
11.2493	  0.183127	  0.101778	  0.055146	
11.3118	  0.168069	  0.101677	  0.055677	
11.3743	  0.160000	  0.102338	  0.054882	
11.4368	  0.156688	  0.103759	  0.052053	
11.4993	  0.148640	  0.104956	  0.048820	
11.5618	  0.138959	  0.104387	  0.046715	
11.6243	  0.139872	  0.102238	  0.046384	
11.6868	  0.152150	  0.100561	  0.046617	
11.7492	  0.160903	  0.100573	  0.045179	
11.8117	  0.154276	  0.101207	  0.041771	
11.8742	  0.139498	  0.100763	  0.038180	
11.9367	  0.134585	  0.098814	  0.035701	
11.9992	  0.147055	  0.096103	  0.034272	
12.0617	  0.166540	  0.093671	  0.033466	
12.1242	  0.180332	  0.092440	  0.032963	
12.1867	  0.188753	  0.092559	  0.032340	
12.2492	  0.194856	  0.093135	  0.031384	
12.3117	  0.193077	  0.093922	  0.030552	
12.3742	  0.184397	  0.096663	  0.030432	
12.4367	  0.181244	  0.102451	  0.030977	
12.4992	  0.185902	  0.108756	  0.031713	
12.5617	  0.189616	  0.111850	  0.032331	
12.6242	  0.191468	  0.111151	  0.032802	
12.6867	  0.194139	  0.108956	  0.033086	
12.7492	  0.194069	  0.107113	  0.032985	
12.8117	  0.189939	  0.105796	  0.032465	
12.8742	  0.183861	  0.105117	  0.031814	
12.9367	  0.174744	  0.106137	  0.031287	
12.9992	  0.164644	  0.109519	  0.030974	
13.0617	  0.161843	  0.114169	  0.031042	
13.1242	  0.169411	  0.117796	  0.031696	
13.1867	  0.180945	  0.118425	  0.032716	
13.2492	  0.189175	  0.115643	  0.033406	
13.3116	  0.190577	  0.110659	  0.033284	
13.3741	  0.185885	  0.105482	  0.032456	
13.4366	  0.180678	  0.102570	  0.031417	
13.4991	  0.178086	  0.104183	  0.030870	
13.5616	  0.175561	  0.110504	  0.031430	
13.6241	  0.174959	  0.119012	  0.033100	
13.6866	  0.181230	  0.126283	  0.035079	
13.7491	  0.190673	  0.129760	  0.036343	
13.8116	  0.196574	  0.128393	  0.036441	
13.8741	  0.198282	  0.122846	  0.035584	
13.9366	  0.196207	  0.115430	  0.034470	
13.9991	  0.191913	  0.109194	  0.033978	
14.0616	  0.189987	  0.106293	  0.034351	
14.1241	  0.188412	  0.107463	  0.034941	
14.1866	  0.181323	  0.112304	  0.035037	
14.2491	  0.173222	  0.118399	  0.034571	
14.3116	  0.170746	  0.121608	  0.033968	
14.3741	  0.168552	  0.119176	  0.033514	
14.4366	  0.161406	  0.111824	  0.033151	
14.4991	  0.155351	  0.102880	  0.032859	
14.5616	  0.154059	  0.096260	  0.032881	
14.6241	  0.151469	  0.094415	  0.033792	
14.6866	  0.145070	  0.097183	  0.036284	
14.7491	  0.140537	  0.102550	  0.040409	
14.8116	  0.140628	  0.108602	  0.045439	
